<?xml version="1.0" encoding="utf-8"?>

<svg version="1.2" baseProfile="tiny" id="Layer_1" xmlns="http://www.w3.org/2000/svg" xmlns:xlink="http://www.w3.org/1999/xlink"
	 x="0px" y="0px" width="116px" height="116px" viewBox="0 0 116 116" xml:space="preserve">
<path fill="#FFFFFF" stroke="#FFFFFF" stroke-miterlimit="10" d="M61.782,26.689c2.691-18.301-46.269-42.033-59.727,6.6
	c-8.103,29.279,36.068,74.387,40.275,78.01c0,0,61.384-16.691,71.301-52.486c8.916-32.182-27.349-58.534-51.443-33.904"/>
<g>
	<rect x="14.688" y="39.673" fill="none" width="86.414" height="25.962"/>
	<path fill="#FFAFA4" d="M16.736,39.675h10.848c4.255,0,8.255,1.951,8.255,7.359c0,5.663-3.231,7.871-8.255,7.871h-4.896v7.615
		h-5.951V39.675z M22.688,50.298h4c1.856,0,3.2-0.769,3.2-2.848c0-2.145-1.376-3.008-3.2-3.008h-4V50.298z"/>
	<path fill="#FFAFA4" d="M46.515,39.194c7.199,0,11.263,5.279,11.263,11.903c0,6.623-4.063,11.903-11.263,11.903
		s-11.264-5.28-11.264-11.903C35.251,44.474,39.315,39.194,46.515,39.194z M46.515,57.881c3.84,0,5.312-3.392,5.312-6.783
		s-1.472-6.783-5.312-6.783s-5.312,3.392-5.312,6.783S42.675,57.881,46.515,57.881z"/>
	<path fill="#FFAFA4" d="M57.718,39.675h5.951v8.767l7.52-8.767h7.392l-8.447,8.991l9.503,13.854h-7.391l-6.144-9.599l-2.433,2.56
		v7.039h-5.951V39.675z"/>
	<path fill="#FFAFA4" d="M79.392,39.675h18.207v4.768H85.343v3.999h11.199v4.608H85.343v4.352h12.575v5.119H79.392V39.675z"/>
</g>
<g>
</g>
<g>
</g>
<g>
</g>
<g>
</g>
<g>
</g>
<g>
</g>
<g>
</g>
<g>
</g>
<g>
</g>
<g>
</g>
<g>
</g>
<g>
</g>
<g>
</g>
<g>
</g>
<g>
</g>
</svg>
